<svg width="23" height="22" viewBox="0 0 23 22" fill="none" xmlns="http://www.w3.org/2000/svg">
<g clip-path="url(#clip0_22906_58622)">
<rect width="22" height="22" transform="translate(0.5)" fill="white"/>
<path fill-rule="evenodd" clip-rule="evenodd" d="M11.5 11C14.2614 11 16.5 8.76142 16.5 6C16.5 3.23858 14.2614 1 11.5 1C8.73858 1 6.5 3.23858 6.5 6C6.5 8.76142 8.73858 11 11.5 11ZM20.5 18.0167C20.5 15.17 16.3254 13 11.5 13L11.2113 13.0026C6.50926 13.0871 2.5 15.227 2.5 18.0167C2.5 19.1141 3.98465 19.9485 6.15309 20.4521L6.62793 20.5549L7.20867 20.6623L7.81292 20.7553L8.06058 20.7885L8.56512 20.8477L9.08074 20.8974L9.34226 20.9187L9.8718 20.9539L10.5441 20.984L11.2252 20.9986L11.4995 21L12.1845 20.9924L12.8616 20.969L13.3956 20.9392L13.6596 20.9205L14.3093 20.8634L14.9421 20.7912L15.4343 20.7228L15.9124 20.6452L16.1681 20.5986C18.7011 20.1198 20.5 19.229 20.5 18.0167Z" fill="#1F1E2B"/>
</g>
<defs>
<clipPath id="clip0_22906_58622">
<rect width="22" height="22" fill="white" transform="translate(0.5)"/>
</clipPath>
</defs>
</svg>
